<svg width="32" height="32" viewBox="0 0 32 32" fill="none" xmlns="http://www.w3.org/2000/svg">
<path d="M13.2487 11.0544C13.1482 11.0544 13.0679 11.0353 13.0076 10.9779C12.9473 10.9205 12.9272 10.8439 12.9272 10.7483V9.98297C12.9272 9.90644 12.9473 9.82991 13.0076 9.77251C13.0679 9.71511 13.1482 9.67685 13.2487 9.67685H21.6058C21.6862 9.67685 21.7665 9.71511 21.8268 9.77251C21.8871 9.82991 21.9272 9.90644 21.9272 9.98297V10.7483C21.9272 10.8439 21.8871 10.9205 21.8268 10.9779C21.7665 11.0353 21.6862 11.0544 21.6058 11.0544H13.2487ZM13.2487 14.1156C13.1482 14.1156 13.0679 14.0965 13.0076 14.0391C12.9473 13.9817 12.9272 13.9052 12.9272 13.8095V13.0442C12.9272 12.9677 12.9473 12.8911 13.0076 12.8337C13.0679 12.7763 13.1482 12.7381 13.2487 12.7381H19.3188C19.3992 12.7381 19.4795 12.7763 19.5398 12.8337C19.6001 12.8911 19.6402 12.9677 19.6402 13.0442V13.8095C19.6402 13.9052 19.6001 13.9817 19.5398 14.0391C19.4795 14.0965 19.3992 14.1156 19.3188 14.1156H13.2487ZM13.2487 17.1768C13.1482 17.1768 13.0679 17.1577 13.0076 17.1003C12.9473 17.0429 12.9272 16.9664 12.9272 16.8707V16.1054C12.9272 16.0289 12.9473 15.9524 13.0076 15.895C13.0679 15.8376 13.1482 15.7993 13.2487 15.7993H17.0318C17.1122 15.7993 17.1925 15.8376 17.2528 15.895C17.3131 15.9524 17.3532 16.0289 17.3532 16.1054V16.8707C17.3532 16.9664 17.3131 17.0429 17.2528 17.1003C17.1925 17.1577 17.1122 17.1768 17.0318 17.1768H13.2487Z" fill="url(#paint0_linear)"/>
<path d="M15.9579 4H12.1402H7.72305C5.66696 4 4 5.66659 4 7.72223V18.7733C4 20.8026 5.64067 22.4535 7.66521 22.464C7.68098 22.464 7.6915 22.4745 7.6915 22.4903V27.0221C7.6915 27.3428 7.82822 27.6635 8.09641 27.8423C8.25416 27.9527 8.43295 28 8.61174 28C8.82734 28 9.04294 27.9264 9.21122 27.7792L15.4058 22.4692C15.411 22.464 15.4163 22.464 15.4216 22.464H24.277C26.1911 22.464 27.7686 21.0182 27.9737 19.1571C27.9895 19.094 28 19.0256 28 18.9573V18.747V18.0635V17.6692C28 17.1593 27.5846 16.7439 27.0745 16.7439C26.5644 16.7439 26.149 17.1593 26.149 17.6692V18.0583V18.7417C26.149 19.7774 25.3076 20.6134 24.277 20.6134H15.0745C14.8536 20.6134 14.638 20.6922 14.475 20.8342L9.58457 25.0296C9.5688 25.0453 9.53725 25.0348 9.53725 25.0085V21.565C9.53725 21.0392 9.11131 20.6134 8.58545 20.6134H7.72305C6.68712 20.6134 5.85101 19.7722 5.85101 18.7417V7.72223C5.85101 6.69179 6.69238 5.8506 7.72305 5.8506H16.0053H21.0692C21.5583 5.8506 21.9579 5.45104 21.9579 4.9621V4.8885C21.9579 4.39956 21.5583 4 21.0692 4H15.9579Z" fill="url(#paint1_linear)"/>
<defs>
<linearGradient id="paint0_linear" x1="22.1719" y1="13.4268" x2="15.1493" y2="17.3771" gradientUnits="userSpaceOnUse">
<stop stop-color="#167B8D"/>
<stop offset="1" stop-color="#009F90"/>
</linearGradient>
<linearGradient id="paint1_linear" x1="28.6525" y1="16" x2="8.441" y2="25.4741" gradientUnits="userSpaceOnUse">
<stop stop-color="#167B8D"/>
<stop offset="1" stop-color="#009F90"/>
</linearGradient>
</defs>
</svg>
