<svg width="33" height="32" viewBox="0 0 33 32" fill="none" xmlns="http://www.w3.org/2000/svg">
<path d="M16.0243 4H12.2066H7.78946C5.73337 4 4.06641 5.66659 4.06641 7.72223V18.7733C4.06641 20.8026 5.70707 22.4535 7.73161 22.464C7.74739 22.464 7.7579 22.4745 7.7579 22.4903V27.0221C7.7579 27.3428 7.89463 27.6635 8.16281 27.8423C8.32057 27.9527 8.49936 28 8.67815 28C8.89375 28 9.10935 27.9264 9.27762 27.7792L15.4722 22.4692C15.4774 22.464 15.4827 22.464 15.488 22.464H24.3434C26.2575 22.464 27.835 21.0182 28.0401 19.1571C28.0559 19.094 28.0664 19.0256 28.0664 18.9573V18.747V18.0635V17.6692C28.0664 17.1593 27.651 16.7439 27.1409 16.7439C26.6308 16.7439 26.2154 17.1593 26.2154 17.6692V18.0583V18.7417C26.2154 19.7774 25.374 20.6134 24.3434 20.6134H15.1409C14.92 20.6134 14.7044 20.6922 14.5414 20.8342L9.65098 25.0296C9.63521 25.0453 9.60365 25.0348 9.60365 25.0085V21.565C9.60365 21.0392 9.17771 20.6134 8.65186 20.6134H7.78946C6.75352 20.6134 5.91741 19.7722 5.91741 18.7417V7.72223C5.91741 6.69179 6.75878 5.8506 7.78946 5.8506H16.0717H21.1356C21.6247 5.8506 22.0243 5.45104 22.0243 4.9621V4.8885C22.0243 4.39956 21.6247 4 21.1356 4H16.0243Z" fill="url(#paint0_linear)"/>
<path d="M20.3866 9.92838C20.9584 10.5001 21.3437 11.1838 21.5426 11.9544C21.7414 12.725 21.7414 13.4957 21.5426 14.2663C21.3437 15.0369 20.9584 15.7206 20.3866 16.2923L19.79 16.889C19.7154 16.9635 19.616 17.0133 19.5165 17.0381C19.3922 17.063 19.2928 17.063 19.2058 17.0257L18.9448 16.9387C18.547 17.2867 18.0871 17.4732 17.5527 17.4607C17.0182 17.4483 16.5831 17.2618 16.2103 16.889L15.9119 16.5907C15.8249 16.5036 15.7752 16.4042 15.7876 16.2923C15.7752 16.1805 15.8249 16.081 15.9119 15.994L18.0996 13.8064C18.1741 13.7318 18.2736 13.6821 18.3979 13.6821C18.4973 13.6821 18.6092 13.7194 18.6962 13.8064L18.9945 14.1047C19.1809 14.2912 19.3177 14.5025 19.4171 14.7511C19.5165 14.9997 19.5538 15.2607 19.5663 15.5217L19.5911 15.4968C20.0137 15.0742 20.2996 14.5646 20.4612 13.9804C20.5979 13.3962 20.5979 12.8245 20.4612 12.2403C20.2996 11.6561 20.0137 11.1465 19.5911 10.7239C19.1561 10.2888 18.6465 10.003 18.0747 9.8538C17.4781 9.70465 16.9063 9.70465 16.3346 9.8538C15.7379 10.003 15.2407 10.3013 14.8181 10.7239L14.7933 10.7487C15.0419 10.7487 15.3029 10.786 15.5515 10.8855C15.8001 10.9849 16.0114 11.1216 16.2103 11.3205L16.5086 11.6188C16.5831 11.6934 16.6204 11.8053 16.6329 11.9171C16.6204 12.029 16.5831 12.1408 16.5086 12.2154L14.321 14.403C14.2339 14.49 14.1221 14.5273 14.0226 14.5273C13.8983 14.5273 13.7989 14.4776 13.7243 14.403L13.426 14.1047C13.0531 13.7318 12.8543 13.2844 12.8418 12.7499C12.8294 12.2154 13.0158 11.7555 13.3763 11.3702L13.2893 11.1092C13.2396 11.0098 13.2396 10.9103 13.2769 10.7985C13.2893 10.6866 13.3514 10.5996 13.426 10.525L14.0226 9.92838C14.5944 9.35662 15.2656 8.95887 16.0362 8.76C16.8069 8.56112 17.5775 8.56112 18.3481 8.76C19.1188 8.95887 19.8024 9.34419 20.3866 9.92838Z" fill="url(#paint1_linear)"/>
<defs>
<linearGradient id="paint0_linear" x1="28.7189" y1="16" x2="8.5074" y2="25.4741" gradientUnits="userSpaceOnUse">
<stop stop-color="#167B8D"/>
<stop offset="1" stop-color="#009F90"/>
</linearGradient>
<linearGradient id="paint1_linear" x1="21.9323" y1="13.0361" x2="14.479" y2="16.5298" gradientUnits="userSpaceOnUse">
<stop stop-color="#167B8D"/>
<stop offset="1" stop-color="#009F90"/>
</linearGradient>
</defs>
</svg>
