<svg width="33" height="32" viewBox="0 0 33 32" fill="none" xmlns="http://www.w3.org/2000/svg">
<path d="M16.0907 4H12.273H7.85586C5.79977 4 4.13281 5.66659 4.13281 7.72223V18.7733C4.13281 20.8026 5.77348 22.4535 7.79802 22.464C7.81379 22.464 7.82431 22.4745 7.82431 22.4903V27.0221C7.82431 27.3428 7.96103 27.6635 8.22922 27.8423C8.38698 27.9527 8.56577 28 8.74456 28C8.96016 28 9.17576 27.9264 9.34403 27.7792L15.5386 22.4692C15.5439 22.464 15.5491 22.464 15.5544 22.464H24.4098C26.3239 22.464 27.9014 21.0182 28.1065 19.1571C28.1223 19.094 28.1328 19.0256 28.1328 18.9573V18.747V18.0635V17.6692C28.1328 17.1593 27.7174 16.7439 27.2073 16.7439C26.6972 16.7439 26.2818 17.1593 26.2818 17.6692V18.0583V18.7417C26.2818 19.7774 25.4404 20.6134 24.4098 20.6134H15.2073C14.9865 20.6134 14.7708 20.6922 14.6078 20.8342L9.71739 25.0296C9.70161 25.0453 9.67006 25.0348 9.67006 25.0085V21.565C9.67006 21.0392 9.24412 20.6134 8.71826 20.6134H7.85586C6.81993 20.6134 5.98382 19.7722 5.98382 18.7417V7.72223C5.98382 6.69179 6.82519 5.8506 7.85586 5.8506H16.1381H21.2021C21.6911 5.8506 22.0907 5.45104 22.0907 4.9621V4.8885C22.0907 4.39956 21.6911 4 21.2021 4H16.0907Z" fill="url(#paint0_linear)"/>
<path fill-rule="evenodd" clip-rule="evenodd" d="M21.2121 11.9229L21.2196 11.9273C21.6244 12.1666 21.898 12.5214 22.049 12.8934C22.0543 12.9064 22.0594 12.9195 22.0643 12.9326C22.2182 13.3497 22.2362 13.8265 22.0571 14.2828C21.8876 14.7282 21.5826 15.0545 21.2196 15.2691L21.2121 15.2735L16.5006 18.0167C16.1046 18.2494 15.6444 18.3365 15.1871 18.2569C14.7502 18.1833 14.372 17.9813 14.0699 17.6575C13.6507 17.2251 13.5606 16.7005 13.5606 16.3431V10.8533C13.5606 10.4001 13.7094 9.89342 14.1126 9.49614C14.4004 9.21256 14.7618 9.01339 15.2005 8.93945C15.6728 8.85724 16.1186 8.95519 16.5007 9.17969L21.2121 11.9229ZM15.8374 10.3123C15.7035 10.2331 15.5695 10.2067 15.4222 10.2331C15.2615 10.2595 15.141 10.3255 15.0338 10.431C14.9267 10.5366 14.8731 10.6818 14.8731 10.8533V16.3431C14.8731 16.5014 14.9133 16.6466 15.0204 16.7522C15.1276 16.8709 15.2481 16.9369 15.4088 16.9633C15.5561 16.9897 15.7035 16.9633 15.8374 16.8841L20.5517 14.1393C20.6856 14.0601 20.7794 13.9545 20.8329 13.8093C20.8865 13.6774 20.8865 13.5322 20.8329 13.3871C20.7794 13.2551 20.6856 13.1363 20.5517 13.0571L15.8374 10.3123Z" fill="url(#paint1_linear)"/>
<defs>
<linearGradient id="paint0_linear" x1="28.7853" y1="16" x2="8.57381" y2="25.4741" gradientUnits="userSpaceOnUse">
<stop stop-color="#167B8D"/>
<stop offset="1" stop-color="#009F90"/>
</linearGradient>
<linearGradient id="paint1_linear" x1="22.4201" y1="13.5982" x2="14.9499" y2="16.8197" gradientUnits="userSpaceOnUse">
<stop stop-color="#167B8D"/>
<stop offset="1" stop-color="#009F90"/>
</linearGradient>
</defs>
</svg>
